<svg version="1.1" id="Layer_1" xmlns="http://www.w3.org/2000/svg" xmlns:xlink="http://www.w3.org/1999/xlink" x="0px" y="0px"
	 width="100%" viewBox="0 0 277 128" enable-background="new 0 0 277 128" xml:space="preserve">
<path fill="#FDF7EB" opacity="1.000000" stroke="none" 
	d="
M217.000000,129.000000 
	C144.666687,129.000000 72.833374,129.000000 1.000048,129.000000 
	C1.000032,86.333366 1.000032,43.666737 1.000016,1.000077 
	C93.333275,1.000051 185.666550,1.000051 277.999878,1.000026 
	C277.999908,43.666592 277.999908,86.333183 277.999939,128.999878 
	C257.833344,129.000000 237.666672,129.000000 217.000000,129.000000 
M90.821144,102.140434 
	C92.265999,101.112015 93.710854,100.083595 95.593819,99.039627 
	C95.593819,99.039627 96.012245,98.908905 96.627060,99.016380 
	C96.904053,98.720093 97.181038,98.423798 97.819710,97.933174 
	C97.972580,97.696899 98.053391,97.438118 98.703972,96.873688 
	C99.907135,95.611214 101.110291,94.348740 102.451569,92.941345 
	C98.646255,89.478745 95.105339,86.256729 91.388084,82.874260 
	C90.403549,83.969574 89.540955,84.929245 88.276451,85.938583 
	C88.000137,86.068451 87.863113,86.286034 87.215324,86.795769 
	C85.773010,87.786064 84.330704,88.776360 82.148735,89.902710 
	C76.763779,92.929619 70.898567,92.793762 65.229782,91.637520 
	C54.882099,89.526947 46.518719,80.162369 45.100452,69.929893 
	C43.372223,57.461132 48.276573,46.555508 58.159412,40.891178 
	C67.987244,35.258381 78.754898,36.112595 87.847183,43.537697 
	C90.172791,45.436878 91.933289,45.923409 94.413193,43.932648 
	C96.718071,42.082382 97.309433,40.335266 95.827354,37.629505 
	C94.484787,35.178444 93.901665,32.297153 92.471115,29.913137 
	C91.371269,28.080242 89.755287,25.963438 87.889122,25.276970 
	C71.468445,19.236622 55.969105,21.042885 42.667610,32.760456 
	C29.390909,44.456184 25.531256,59.396278 29.721687,76.556564 
	C34.312504,95.356468 54.527416,111.793053 80.848488,106.521606 
	C83.944641,105.044800 87.040794,103.567993 90.045448,102.056000 
	C90.045448,102.056000 90.085686,102.145386 90.821144,102.140434 
M191.566650,104.348457 
	C191.579330,93.534622 191.592026,82.720787 191.913361,71.914818 
	C191.913361,71.914818 191.900131,71.606361 192.850113,71.592819 
	C204.235977,71.721619 215.621857,71.850418 226.996262,71.990135 
	C226.996262,71.990135 226.990463,72.004631 226.975403,72.941216 
	C226.975403,83.956230 226.975403,94.971252 226.975403,106.883461 
	C232.877411,106.179337 237.888290,105.581520 243.092560,104.066002 
	C243.102875,92.962669 243.156189,81.859161 243.113190,70.756035 
	C243.052902,55.190899 242.920944,39.626038 242.478241,23.290442 
	C237.411926,23.290442 232.345627,23.290442 226.931732,23.290442 
	C226.931732,34.855583 226.931732,45.775272 226.007843,56.795132 
	C214.680634,56.819649 203.353439,56.844170 191.852982,55.961170 
	C191.852982,45.221237 191.852982,34.481308 191.852982,23.876156 
	C183.586121,22.456289 183.586121,22.456289 180.971878,30.945530 
	C180.971878,30.945530 180.942154,30.901415 180.388733,31.338509 
	C179.858200,32.898857 179.327682,34.459209 178.301895,36.322205 
	C178.206253,36.883411 178.110626,37.444614 177.575851,38.382118 
	C176.882843,40.516315 175.601837,42.646946 175.588867,44.785259 
	C175.474457,63.658421 175.554077,82.533173 175.688370,101.406654 
	C175.699219,102.934654 176.541489,104.456749 177.899429,106.225746 
	C182.347626,105.855705 186.795822,105.485672 191.566650,104.348457 
M153.661743,82.122345 
	C153.732468,81.752029 153.803192,81.381714 154.078583,80.628761 
	C154.078583,80.628761 154.087616,80.194939 154.597549,79.752960 
	C155.062317,78.501122 155.527084,77.249283 156.452515,75.501343 
	C156.975479,74.003548 157.498459,72.505760 158.546082,70.559700 
	C165.037094,54.974010 171.528107,39.388321 178.324921,23.068356 
	C172.692902,23.068356 168.057236,22.913044 163.445740,23.178238 
	C162.301651,23.244030 160.693817,24.437685 160.228897,25.514376 
	C158.324371,29.925060 156.779312,34.490963 154.702560,39.606087 
	C148.928787,54.081512 143.154999,68.556938 137.381210,83.032364 
	C136.902206,82.885689 136.423203,82.739014 135.944199,82.592331 
	C128.947418,65.065041 121.950645,47.537746 114.900673,29.252514 
	C113.537231,27.194283 112.426849,23.643425 110.762299,23.361214 
	C106.008247,22.555201 101.028938,23.077820 95.208069,23.077820 
	C97.036011,27.071037 98.452736,30.165945 99.926552,33.989868 
	C108.710762,55.365788 117.455246,76.758156 126.297684,98.109970 
	C130.122559,107.345901 130.832687,107.711746 141.053391,106.339005 
	C142.228668,106.181168 143.795441,105.113670 144.254318,104.063255 
	C147.372421,96.925583 150.241913,89.679298 153.661743,82.122345 
z"/>
<path fill="#2A232A" opacity="1.000000" stroke="none" 
	d="
M80.043816,106.614677 
	C54.527416,111.793053 34.312504,95.356468 29.721687,76.556564 
	C25.531256,59.396278 29.390909,44.456184 42.667610,32.760456 
	C55.969105,21.042885 71.468445,19.236622 87.889122,25.276970 
	C89.755287,25.963438 91.371269,28.080242 92.471115,29.913137 
	C93.901665,32.297153 94.484787,35.178444 95.827354,37.629505 
	C97.309433,40.335266 96.718071,42.082382 94.413193,43.932648 
	C91.933289,45.923409 90.172791,45.436878 87.847183,43.537697 
	C78.754898,36.112595 67.987244,35.258381 58.159412,40.891178 
	C48.276573,46.555508 43.372223,57.461132 45.100452,69.929893 
	C46.518719,80.162369 54.882099,89.526947 65.229782,91.637520 
	C70.898567,92.793762 76.763779,92.929619 82.709991,90.111732 
	C86.048820,90.612747 87.863876,89.719070 87.865379,86.591339 
	C87.863113,86.286034 88.000137,86.068451 88.866547,85.947006 
	C95.060127,87.588074 96.034386,92.777138 98.062157,97.156837 
	C98.053391,97.438118 97.972580,97.696899 97.357208,98.078186 
	C96.600563,98.451775 96.306404,98.680344 96.012245,98.908905 
	C96.012245,98.908905 95.593819,99.039627 94.993225,99.036530 
	C92.956978,100.070747 91.521332,101.108063 90.085686,102.145386 
	C90.085686,102.145386 90.045448,102.056000 89.732567,102.049744 
	C85.851929,102.659683 81.550507,101.771080 80.043816,106.614677 
z"/>
<path fill="#1F60AC" opacity="1.000000" stroke="none" 
	d="
M158.021423,71.007965 
	C157.498459,72.505760 156.975479,74.003548 155.859680,75.829544 
	C154.873764,77.503471 154.480698,78.849205 154.087616,80.194939 
	C154.087616,80.194939 154.078583,80.628761 153.763657,81.007484 
	C153.363052,81.746834 153.277374,82.107468 153.191696,82.468094 
	C150.241913,89.679298 147.372421,96.925583 144.254318,104.063255 
	C143.795441,105.113670 142.228668,106.181168 141.053391,106.339005 
	C130.832687,107.711746 130.122559,107.345901 126.297684,98.109970 
	C117.455246,76.758156 108.710762,55.365788 99.935738,33.220592 
	C99.415245,30.137924 98.885567,27.824532 98.275925,25.161901 
	C104.772186,25.017101 111.146004,23.027674 114.953873,30.010454 
	C121.950645,47.537746 128.947418,65.065041 135.944199,82.592331 
	C136.423203,82.739014 136.902206,82.885689 137.381210,83.032364 
	C143.154999,68.556938 148.928787,54.081512 155.241119,39.231083 
	C156.767410,36.997341 157.937317,35.211178 158.711655,33.267422 
	C162.228119,24.440355 162.183304,24.542929 171.414978,24.908512 
	C175.252258,25.060474 175.521454,26.639727 174.221451,29.641413 
	C168.909180,41.907291 163.617188,54.182484 158.442642,66.506691 
	C157.886032,67.832375 158.142258,69.499321 158.021423,71.007965 
z"/>
<path fill="#2C252D" opacity="1.000000" stroke="none" 
	d="
M226.931732,56.694962 
	C226.931732,45.775272 226.931732,34.855583 226.931732,23.290442 
	C232.345627,23.290442 237.411926,23.290442 242.384308,23.989279 
	C242.190338,26.504333 242.005508,28.320438 242.003098,30.136786 
	C241.970444,54.748352 241.963120,79.359947 241.487488,103.978905 
	C239.372391,103.989059 237.719360,103.994682 236.066330,103.994133 
	C229.007294,103.991776 229.005981,103.991119 229.004059,97.172035 
	C229.002090,90.229263 229.116318,83.283142 228.911469,76.346413 
	C228.868210,74.881523 227.661240,73.450996 226.990463,72.004631 
	C226.990463,72.004631 226.996262,71.990135 226.866852,71.604080 
	C225.095230,70.809387 223.457245,70.068161 221.810089,70.047173 
	C212.545303,69.929184 203.278305,69.984528 193.962601,69.624153 
	C192.959198,68.466400 191.861221,67.783134 191.085968,66.835770 
	C189.992706,65.499794 189.138382,63.968296 188.181900,62.520393 
	C189.646896,61.684338 191.052612,60.288658 192.588943,60.125862 
	C196.048904,59.759239 199.587463,60.181168 203.064941,59.909630 
	C204.423035,59.803581 205.703018,58.697174 207.485046,58.034336 
	C211.690994,58.017815 215.439911,58.173775 219.166672,57.954037 
	C221.770721,57.800499 224.344452,57.132935 226.931732,56.694962 
z"/>
<path fill="#241925" opacity="1.000000" stroke="none" 
	d="
M207.018570,58.046394 
	C205.703018,58.697174 204.423035,59.803581 203.064941,59.909630 
	C199.587463,60.181168 196.048904,59.759239 192.588943,60.125862 
	C191.052612,60.288658 189.646896,61.684338 188.181900,62.520393 
	C189.138382,63.968296 189.992706,65.499794 191.085968,66.835770 
	C191.861221,67.783134 192.959198,68.466400 193.671814,69.660774 
	C192.920364,70.571449 192.410248,71.088905 191.900131,71.606361 
	C191.900131,71.606361 191.913361,71.914818 191.467865,72.048492 
	C190.672379,73.126968 190.322388,74.071762 189.537537,75.010254 
	C187.440445,74.951973 185.750076,75.076355 184.121033,74.816422 
	C178.176056,73.867851 178.033417,73.944725 178.004517,80.096176 
	C177.992004,82.760384 177.922958,85.427917 178.031708,88.087730 
	C178.097015,89.685226 178.455734,91.270721 178.682587,92.861610 
	C179.213867,92.897377 179.745148,92.933151 180.276428,92.968918 
	C180.856583,91.037384 181.535187,89.129036 181.996719,87.169563 
	C183.003906,82.893494 184.932419,79.733940 189.987518,80.455383 
	C189.995361,88.616180 189.992844,96.307556 189.528870,103.999741 
	C186.630859,104.000427 184.161270,103.757790 181.769196,104.083862 
	C180.122971,104.308250 178.584213,105.321114 176.997437,105.981583 
	C176.541489,104.456749 175.699219,102.934654 175.688370,101.406654 
	C175.554077,82.533173 175.474457,63.658421 175.588867,44.785259 
	C175.601837,42.646946 176.882843,40.516315 178.112915,38.244362 
	C179.124893,40.906700 179.532013,43.720482 180.093750,46.503052 
	C180.657272,49.294415 181.374985,52.054653 182.045578,54.915874 
	C185.039658,51.006912 187.455200,48.006313 189.659210,44.857632 
	C190.150040,44.156425 189.960205,42.935120 189.973587,41.951775 
	C190.009644,39.298508 189.986404,36.644428 189.986511,33.990673 
	C189.986633,31.064568 189.986526,28.138462 189.986526,24.407663 
	C186.068619,27.228878 183.493973,29.082838 180.919327,30.936798 
	C183.586121,22.456289 183.586121,22.456289 191.852982,23.876156 
	C191.852982,34.481308 191.852982,45.221237 192.205536,56.737442 
	C197.378265,57.691273 202.198410,57.868835 207.018570,58.046394 
z"/>
<path fill="#2C252D" opacity="1.000000" stroke="none" 
	d="
M180.945602,30.941166 
	C183.493973,29.082838 186.068619,27.228878 189.986526,24.407663 
	C189.986526,28.138462 189.986633,31.064568 189.986511,33.990673 
	C189.986404,36.644428 190.009644,39.298508 189.973587,41.951775 
	C189.960205,42.935120 190.150040,44.156425 189.659210,44.857632 
	C187.455200,48.006313 185.039658,51.006912 182.045578,54.915874 
	C181.374985,52.054653 180.657272,49.294415 180.093750,46.503052 
	C179.532013,43.720482 179.124893,40.906700 178.332489,38.056213 
	C178.110626,37.444614 178.206253,36.883411 178.937012,36.104126 
	C180.028824,34.224506 180.485489,32.562962 180.942154,30.901417 
	C180.942154,30.901415 180.971878,30.945530 180.945602,30.941166 
z"/>
<path fill="#376CAA" opacity="1.000000" stroke="none" 
	d="
M158.283752,70.783829 
	C158.142258,69.499321 157.886032,67.832375 158.442642,66.506691 
	C163.617188,54.182484 168.909180,41.907291 174.221451,29.641413 
	C175.521454,26.639727 175.252258,25.060474 171.414978,24.908512 
	C162.183304,24.542929 162.228119,24.440355 158.711655,33.267422 
	C157.937317,35.211178 156.767410,36.997341 155.440796,38.927902 
	C156.779312,34.490963 158.324371,29.925060 160.228897,25.514376 
	C160.693817,24.437685 162.301651,23.244030 163.445740,23.178238 
	C168.057236,22.913044 172.692902,23.068356 178.324921,23.068356 
	C171.528107,39.388321 165.037094,54.974010 158.283752,70.783829 
z"/>
<path fill="#1F1A20" opacity="1.000000" stroke="none" 
	d="
M226.982941,72.472923 
	C227.661240,73.450996 228.868210,74.881523 228.911469,76.346413 
	C229.116318,83.283142 229.002090,90.229263 229.004059,97.172035 
	C229.005981,103.991119 229.007294,103.991776 236.066330,103.994133 
	C237.719360,103.994682 239.372391,103.989059 241.596848,104.190681 
	C242.352142,104.665520 242.595779,104.861717 242.899185,104.983704 
	C237.888290,105.581520 232.877411,106.179337 226.975403,106.883461 
	C226.975403,94.971252 226.975403,83.956230 226.982941,72.472923 
z"/>
<path fill="#0E0D0E" opacity="1.000000" stroke="none" 
	d="
M242.995880,104.524857 
	C242.595779,104.861717 242.352142,104.665520 242.058899,104.183319 
	C241.963120,79.359947 241.970444,54.748352 242.003098,30.136786 
	C242.005508,28.320438 242.190338,26.504333 242.554993,24.374588 
	C242.920944,39.626038 243.052902,55.190899 243.113190,70.756035 
	C243.156189,81.859161 243.102875,92.962669 242.995880,104.524857 
z"/>
<path fill="#141015" opacity="1.000000" stroke="none" 
	d="
M192.375122,71.599594 
	C192.410248,71.088905 192.920364,70.571449 193.721283,70.017372 
	C203.278305,69.984528 212.545303,69.929184 221.810089,70.047173 
	C223.457245,70.068161 225.095230,70.809387 226.872589,71.598618 
	C215.621857,71.850418 204.235977,71.721619 192.375122,71.599594 
z"/>
<path fill="#150417" opacity="1.000000" stroke="none" 
	d="
M189.972412,75.016563 
	C190.322388,74.071762 190.672379,73.126968 191.313538,72.044563 
	C191.592026,82.720787 191.579330,93.534622 191.151611,104.598755 
	C190.487823,104.565681 190.239075,104.282310 189.990326,103.998947 
	C189.992844,96.307556 189.995361,88.616180 189.992447,80.041428 
	C189.982147,77.777565 189.977280,76.397064 189.972412,75.016563 
z"/>
<path fill="#376BA8" opacity="1.000000" stroke="none" 
	d="
M114.927277,29.631485 
	C111.146004,23.027674 104.772186,25.017101 98.275925,25.161901 
	C98.885567,27.824532 99.415245,30.137924 99.907196,32.856087 
	C98.452736,30.165945 97.036011,27.071037 95.208069,23.077820 
	C101.028938,23.077820 106.008247,22.555201 110.762299,23.361214 
	C112.426849,23.643425 113.537231,27.194283 114.927277,29.631485 
z"/>
<path fill="#221C23" opacity="1.000000" stroke="none" 
	d="
M98.383064,97.015259 
	C96.034386,92.777138 95.060127,87.588074 89.067490,85.922165 
	C89.540955,84.929245 90.403549,83.969574 91.388084,82.874260 
	C95.105339,86.256729 98.646255,89.478745 102.451569,92.941345 
	C101.110291,94.348740 99.907135,95.611214 98.383064,97.015259 
z"/>
<path fill="#090709" opacity="1.000000" stroke="none" 
	d="
M207.485046,58.034340 
	C202.198410,57.868835 197.378265,57.691273 192.292175,57.191200 
	C203.353439,56.844170 214.680634,56.819649 226.469788,56.745045 
	C224.344452,57.132935 221.770721,57.800499 219.166672,57.954037 
	C215.439911,58.173775 211.690994,58.017815 207.485046,58.034340 
z"/>
<path fill="#1E1A1F" opacity="1.000000" stroke="none" 
	d="
M189.528870,103.999741 
	C190.239075,104.282310 190.487823,104.565681 190.990295,104.982346 
	C186.795822,105.485672 182.347626,105.855705 177.448425,106.103661 
	C178.584213,105.321114 180.122971,104.308250 181.769196,104.083862 
	C184.161270,103.757790 186.630859,104.000427 189.528870,103.999741 
z"/>
<path fill="#221C23" opacity="1.000000" stroke="none" 
	d="
M80.446152,106.568146 
	C81.550507,101.771080 85.851929,102.659683 89.778313,102.067337 
	C87.040794,103.567993 83.944641,105.044800 80.446152,106.568146 
z"/>
<path fill="#221C23" opacity="1.000000" stroke="none" 
	d="
M87.540352,86.693558 
	C87.863876,89.719070 86.048820,90.612747 83.079819,90.043709 
	C84.330704,88.776360 85.773010,87.786064 87.540352,86.693558 
z"/>
<path fill="#221C23" opacity="1.000000" stroke="none" 
	d="
M90.453415,102.142914 
	C91.521332,101.108063 92.956978,100.070747 94.774170,99.044312 
	C93.710854,100.083595 92.265999,101.112015 90.453415,102.142914 
z"/>
<path fill="#241925" opacity="1.000000" stroke="none" 
	d="
M180.665436,31.119963 
	C180.485489,32.562962 180.028824,34.224506 179.184647,35.952805 
	C179.327682,34.459209 179.858200,32.898857 180.665436,31.119963 
z"/>
<path fill="#376CAA" opacity="1.000000" stroke="none" 
	d="
M154.342590,79.973953 
	C154.480698,78.849205 154.873764,77.503471 155.629333,76.077591 
	C155.527084,77.249283 155.062317,78.501122 154.342590,79.973953 
z"/>
<path fill="#376CAA" opacity="1.000000" stroke="none" 
	d="
M153.426727,82.295219 
	C153.277374,82.107468 153.363052,81.746834 153.661316,81.198807 
	C153.803192,81.381714 153.732468,81.752029 153.426727,82.295219 
z"/>
<path fill="#221C23" opacity="1.000000" stroke="none" 
	d="
M96.319656,98.962646 
	C96.306404,98.680344 96.600563,98.451775 97.176376,98.175354 
	C97.181038,98.423798 96.904053,98.720093 96.319656,98.962646 
z"/>
<path fill="#2C252D" opacity="1.000000" stroke="none" 
	d="
M189.537537,75.010254 
	C189.977280,76.397064 189.982147,77.777565 189.982117,79.572014 
	C184.932419,79.733940 183.003906,82.893494 181.996719,87.169563 
	C181.535187,89.129036 180.856583,91.037384 180.276428,92.968918 
	C179.745148,92.933151 179.213867,92.897377 178.682587,92.861610 
	C178.455734,91.270721 178.097015,89.685226 178.031708,88.087730 
	C177.922958,85.427917 177.992004,82.760384 178.004517,80.096176 
	C178.033417,73.944725 178.176056,73.867851 184.121033,74.816422 
	C185.750076,75.076355 187.440445,74.951973 189.537537,75.010254 
z"/>
</svg>